<mxfile host="app.diagrams.net" agent="Mozilla/5.0 (Windows NT 10.0; Win64; x64) AppleWebKit/537.36 (KHTML, like Gecko) Chrome/129.0.0.0 Safari/537.36" version="24.8.0">
  <diagram name="PÃ¡gina-1" id="FlzTYjxl6JDcC60CuSpR">
    <mxGraphModel dx="1112" dy="1595" grid="0" gridSize="10" guides="1" tooltips="1" connect="1" arrows="1" fold="1" page="0" pageScale="1" pageWidth="827" pageHeight="1169" math="0" shadow="0">
      <root>
        <mxCell id="0" />
        <mxCell id="1" parent="0" />
        <mxCell id="1_JUy7Ut2HyBvIPojTy2-1" value="Funcionarios&amp;nbsp;" style="whiteSpace=wrap;html=1;" vertex="1" parent="1">
          <mxGeometry x="-93" y="-203" width="120" height="60" as="geometry" />
        </mxCell>
        <mxCell id="1_JUy7Ut2HyBvIPojTy2-2" value="tem" style="rhombus;whiteSpace=wrap;html=1;" vertex="1" parent="1">
          <mxGeometry x="155" y="-220" width="155" height="94" as="geometry" />
        </mxCell>
        <mxCell id="1_JUy7Ut2HyBvIPojTy2-3" value="" style="endArrow=none;html=1;rounded=0;fontSize=12;startSize=8;endSize=8;curved=1;exitX=1;exitY=0.5;exitDx=0;exitDy=0;entryX=0;entryY=0.5;entryDx=0;entryDy=0;" edge="1" parent="1" source="1_JUy7Ut2HyBvIPojTy2-1" target="1_JUy7Ut2HyBvIPojTy2-2">
          <mxGeometry width="50" height="50" relative="1" as="geometry">
            <mxPoint x="56" y="-170" as="sourcePoint" />
            <mxPoint x="106" y="-220" as="targetPoint" />
          </mxGeometry>
        </mxCell>
        <mxCell id="1_JUy7Ut2HyBvIPojTy2-4" value="Empresa" style="whiteSpace=wrap;html=1;" vertex="1" parent="1">
          <mxGeometry x="441" y="-203" width="120" height="60" as="geometry" />
        </mxCell>
        <mxCell id="1_JUy7Ut2HyBvIPojTy2-5" value="" style="endArrow=none;html=1;rounded=0;fontSize=12;startSize=8;endSize=8;curved=1;exitX=1;exitY=0.5;exitDx=0;exitDy=0;entryX=0;entryY=0.5;entryDx=0;entryDy=0;" edge="1" parent="1" source="1_JUy7Ut2HyBvIPojTy2-2" target="1_JUy7Ut2HyBvIPojTy2-4">
          <mxGeometry width="50" height="50" relative="1" as="geometry">
            <mxPoint x="312" y="-163" as="sourcePoint" />
            <mxPoint x="362" y="-213" as="targetPoint" />
          </mxGeometry>
        </mxCell>
        <mxCell id="1_JUy7Ut2HyBvIPojTy2-6" value="Codfun" style="text;html=1;align=center;verticalAlign=middle;resizable=0;points=[];autosize=1;strokeColor=none;fillColor=none;fontSize=16;fontStyle=4" vertex="1" parent="1">
          <mxGeometry x="-197" y="-256" width="70" height="31" as="geometry" />
        </mxCell>
        <mxCell id="1_JUy7Ut2HyBvIPojTy2-7" value="Codfun" style="text;html=1;align=center;verticalAlign=middle;resizable=0;points=[];autosize=1;strokeColor=none;fillColor=none;fontSize=16;fontStyle=4" vertex="1" parent="1">
          <mxGeometry x="345" y="-246" width="70" height="31" as="geometry" />
        </mxCell>
        <mxCell id="1_JUy7Ut2HyBvIPojTy2-8" value="" style="endArrow=none;html=1;rounded=0;fontSize=12;startSize=8;endSize=8;curved=1;entryX=0.986;entryY=1.032;entryDx=0;entryDy=0;entryPerimeter=0;exitX=0.008;exitY=0;exitDx=0;exitDy=0;exitPerimeter=0;" edge="1" parent="1" source="1_JUy7Ut2HyBvIPojTy2-4" target="1_JUy7Ut2HyBvIPojTy2-7">
          <mxGeometry width="50" height="50" relative="1" as="geometry">
            <mxPoint x="438" y="-208" as="sourcePoint" />
            <mxPoint x="488" y="-258" as="targetPoint" />
          </mxGeometry>
        </mxCell>
        <mxCell id="1_JUy7Ut2HyBvIPojTy2-9" value="" style="endArrow=none;html=1;rounded=0;fontSize=12;startSize=8;endSize=8;curved=1;entryX=0.986;entryY=0.968;entryDx=0;entryDy=0;entryPerimeter=0;exitX=0;exitY=0;exitDx=0;exitDy=0;" edge="1" parent="1" source="1_JUy7Ut2HyBvIPojTy2-1" target="1_JUy7Ut2HyBvIPojTy2-6">
          <mxGeometry width="50" height="50" relative="1" as="geometry">
            <mxPoint x="-92" y="-203" as="sourcePoint" />
            <mxPoint x="-56" y="-254" as="targetPoint" />
          </mxGeometry>
        </mxCell>
        <mxCell id="1_JUy7Ut2HyBvIPojTy2-10" value="cpf" style="text;html=1;align=center;verticalAlign=middle;resizable=0;points=[];autosize=1;strokeColor=none;fillColor=none;fontSize=16;" vertex="1" parent="1">
          <mxGeometry x="-155" y="-319" width="39" height="31" as="geometry" />
        </mxCell>
        <mxCell id="1_JUy7Ut2HyBvIPojTy2-11" value="email" style="text;html=1;align=center;verticalAlign=middle;resizable=0;points=[];autosize=1;strokeColor=none;fillColor=none;fontSize=16;" vertex="1" parent="1">
          <mxGeometry x="-172" y="-292" width="56" height="31" as="geometry" />
        </mxCell>
        <mxCell id="1_JUy7Ut2HyBvIPojTy2-12" value="telefone*&amp;nbsp;" style="text;html=1;align=center;verticalAlign=middle;resizable=0;points=[];autosize=1;strokeColor=none;fillColor=none;fontSize=16;" vertex="1" parent="1">
          <mxGeometry x="-148" y="-347" width="86" height="31" as="geometry" />
        </mxCell>
        <mxCell id="1_JUy7Ut2HyBvIPojTy2-13" value="" style="endArrow=none;html=1;rounded=0;fontSize=12;startSize=8;endSize=8;curved=1;exitX=0.5;exitY=0;exitDx=0;exitDy=0;entryX=0.554;entryY=1.032;entryDx=0;entryDy=0;entryPerimeter=0;" edge="1" parent="1" source="1_JUy7Ut2HyBvIPojTy2-1" target="1_JUy7Ut2HyBvIPojTy2-11">
          <mxGeometry width="50" height="50" relative="1" as="geometry">
            <mxPoint x="-144" y="-362" as="sourcePoint" />
            <mxPoint x="-94" y="-412" as="targetPoint" />
          </mxGeometry>
        </mxCell>
        <mxCell id="1_JUy7Ut2HyBvIPojTy2-14" value="" style="endArrow=none;html=1;rounded=0;fontSize=12;startSize=8;endSize=8;curved=1;entryX=1.026;entryY=1.065;entryDx=0;entryDy=0;entryPerimeter=0;exitX=0.5;exitY=0;exitDx=0;exitDy=0;" edge="1" parent="1" source="1_JUy7Ut2HyBvIPojTy2-1" target="1_JUy7Ut2HyBvIPojTy2-10">
          <mxGeometry width="50" height="50" relative="1" as="geometry">
            <mxPoint x="-59" y="-204" as="sourcePoint" />
            <mxPoint x="-111" y="-264" as="targetPoint" />
          </mxGeometry>
        </mxCell>
        <mxCell id="1_JUy7Ut2HyBvIPojTy2-15" value="" style="endArrow=none;html=1;rounded=0;fontSize=12;startSize=8;endSize=8;curved=1;entryX=0.628;entryY=1;entryDx=0;entryDy=0;entryPerimeter=0;exitX=0.5;exitY=0;exitDx=0;exitDy=0;" edge="1" parent="1" source="1_JUy7Ut2HyBvIPojTy2-1" target="1_JUy7Ut2HyBvIPojTy2-12">
          <mxGeometry width="50" height="50" relative="1" as="geometry">
            <mxPoint x="-50" y="-205" as="sourcePoint" />
            <mxPoint x="-67" y="-303" as="targetPoint" />
          </mxGeometry>
        </mxCell>
        <mxCell id="1_JUy7Ut2HyBvIPojTy2-16" value="" style="endArrow=none;html=1;rounded=0;fontSize=12;startSize=8;endSize=8;curved=1;entryX=0.586;entryY=0.968;entryDx=0;entryDy=0;entryPerimeter=0;exitX=0.5;exitY=0;exitDx=0;exitDy=0;" edge="1" parent="1" source="1_JUy7Ut2HyBvIPojTy2-1" target="1_JUy7Ut2HyBvIPojTy2-17">
          <mxGeometry width="50" height="50" relative="1" as="geometry">
            <mxPoint x="-37" y="-230" as="sourcePoint" />
            <mxPoint x="-33" y="-292" as="targetPoint" />
          </mxGeometry>
        </mxCell>
        <mxCell id="1_JUy7Ut2HyBvIPojTy2-17" value="nome" style="text;html=1;align=center;verticalAlign=middle;resizable=0;points=[];autosize=1;strokeColor=none;fillColor=none;fontSize=16;" vertex="1" parent="1">
          <mxGeometry x="-101" y="-380" width="58" height="31" as="geometry" />
        </mxCell>
        <mxCell id="1_JUy7Ut2HyBvIPojTy2-18" value="nome" style="text;html=1;align=center;verticalAlign=middle;resizable=0;points=[];autosize=1;strokeColor=none;fillColor=none;fontSize=16;" vertex="1" parent="1">
          <mxGeometry x="351" y="-287" width="58" height="31" as="geometry" />
        </mxCell>
        <mxCell id="1_JUy7Ut2HyBvIPojTy2-19" value="" style="endArrow=none;html=1;rounded=0;fontSize=12;startSize=8;endSize=8;curved=1;entryX=1.034;entryY=1;entryDx=0;entryDy=0;entryPerimeter=0;exitX=0.25;exitY=0;exitDx=0;exitDy=0;" edge="1" parent="1" source="1_JUy7Ut2HyBvIPojTy2-4" target="1_JUy7Ut2HyBvIPojTy2-18">
          <mxGeometry width="50" height="50" relative="1" as="geometry">
            <mxPoint x="452" y="-202" as="sourcePoint" />
            <mxPoint x="417" y="-269" as="targetPoint" />
          </mxGeometry>
        </mxCell>
        <mxCell id="1_JUy7Ut2HyBvIPojTy2-20" value="cnpj" style="text;html=1;align=center;verticalAlign=middle;resizable=0;points=[];autosize=1;strokeColor=none;fillColor=none;fontSize=16;" vertex="1" parent="1">
          <mxGeometry x="366" y="-319" width="47" height="31" as="geometry" />
        </mxCell>
        <mxCell id="1_JUy7Ut2HyBvIPojTy2-21" value="" style="endArrow=none;html=1;rounded=0;fontSize=12;startSize=8;endSize=8;curved=1;exitX=0.25;exitY=0;exitDx=0;exitDy=0;entryX=0.872;entryY=0.968;entryDx=0;entryDy=0;entryPerimeter=0;" edge="1" parent="1" source="1_JUy7Ut2HyBvIPojTy2-4" target="1_JUy7Ut2HyBvIPojTy2-20">
          <mxGeometry width="50" height="50" relative="1" as="geometry">
            <mxPoint x="516" y="-208" as="sourcePoint" />
            <mxPoint x="444" y="-265" as="targetPoint" />
          </mxGeometry>
        </mxCell>
        <mxCell id="1_JUy7Ut2HyBvIPojTy2-22" value="nome_fun" style="text;html=1;align=center;verticalAlign=middle;resizable=0;points=[];autosize=1;strokeColor=none;fillColor=none;fontSize=16;" vertex="1" parent="1">
          <mxGeometry x="340" y="-364" width="89" height="31" as="geometry" />
        </mxCell>
        <mxCell id="1_JUy7Ut2HyBvIPojTy2-23" value="" style="endArrow=none;html=1;rounded=0;fontSize=12;startSize=8;endSize=8;curved=1;exitX=0.25;exitY=0;exitDx=0;exitDy=0;entryX=0.697;entryY=1.129;entryDx=0;entryDy=0;entryPerimeter=0;" edge="1" parent="1" source="1_JUy7Ut2HyBvIPojTy2-4" target="1_JUy7Ut2HyBvIPojTy2-22">
          <mxGeometry width="50" height="50" relative="1" as="geometry">
            <mxPoint x="510" y="-203" as="sourcePoint" />
            <mxPoint x="438" y="-260" as="targetPoint" />
          </mxGeometry>
        </mxCell>
        <mxCell id="1_JUy7Ut2HyBvIPojTy2-24" value="Endereco" style="text;html=1;align=center;verticalAlign=middle;resizable=0;points=[];autosize=1;strokeColor=none;fillColor=none;fontSize=16;" vertex="1" parent="1">
          <mxGeometry x="379" y="-403" width="87" height="31" as="geometry" />
        </mxCell>
        <mxCell id="1_JUy7Ut2HyBvIPojTy2-25" value="Rua" style="text;html=1;align=center;verticalAlign=middle;resizable=0;points=[];autosize=1;strokeColor=none;fillColor=none;fontSize=16;" vertex="1" parent="1">
          <mxGeometry x="308" y="-501" width="47" height="31" as="geometry" />
        </mxCell>
        <mxCell id="1_JUy7Ut2HyBvIPojTy2-26" value="CEP" style="text;html=1;align=center;verticalAlign=middle;resizable=0;points=[];autosize=1;strokeColor=none;fillColor=none;fontSize=16;" vertex="1" parent="1">
          <mxGeometry x="291" y="-468" width="51" height="31" as="geometry" />
        </mxCell>
        <mxCell id="1_JUy7Ut2HyBvIPojTy2-27" value="Bairro" style="text;html=1;align=center;verticalAlign=middle;resizable=0;points=[];autosize=1;strokeColor=none;fillColor=none;fontSize=16;" vertex="1" parent="1">
          <mxGeometry x="286" y="-427" width="61" height="31" as="geometry" />
        </mxCell>
        <mxCell id="1_JUy7Ut2HyBvIPojTy2-28" value="" style="endArrow=none;html=1;rounded=0;fontSize=12;startSize=8;endSize=8;curved=1;exitX=0.598;exitY=0;exitDx=0;exitDy=0;exitPerimeter=0;entryX=0.957;entryY=1.032;entryDx=0;entryDy=0;entryPerimeter=0;" edge="1" parent="1" source="1_JUy7Ut2HyBvIPojTy2-24" target="1_JUy7Ut2HyBvIPojTy2-25">
          <mxGeometry width="50" height="50" relative="1" as="geometry">
            <mxPoint x="415" y="-403" as="sourcePoint" />
            <mxPoint x="343" y="-460" as="targetPoint" />
          </mxGeometry>
        </mxCell>
        <mxCell id="1_JUy7Ut2HyBvIPojTy2-29" value="" style="endArrow=none;html=1;rounded=0;fontSize=12;startSize=8;endSize=8;curved=1;exitX=0.264;exitY=-0.032;exitDx=0;exitDy=0;exitPerimeter=0;entryX=1.02;entryY=0.968;entryDx=0;entryDy=0;entryPerimeter=0;" edge="1" parent="1" source="1_JUy7Ut2HyBvIPojTy2-24" target="1_JUy7Ut2HyBvIPojTy2-26">
          <mxGeometry width="50" height="50" relative="1" as="geometry">
            <mxPoint x="394" y="-383" as="sourcePoint" />
            <mxPoint x="322" y="-440" as="targetPoint" />
          </mxGeometry>
        </mxCell>
        <mxCell id="1_JUy7Ut2HyBvIPojTy2-30" value="" style="endArrow=none;html=1;rounded=0;fontSize=12;startSize=8;endSize=8;curved=1;exitX=0.011;exitY=0.032;exitDx=0;exitDy=0;exitPerimeter=0;entryX=1.033;entryY=0.774;entryDx=0;entryDy=0;entryPerimeter=0;" edge="1" parent="1" source="1_JUy7Ut2HyBvIPojTy2-24" target="1_JUy7Ut2HyBvIPojTy2-27">
          <mxGeometry width="50" height="50" relative="1" as="geometry">
            <mxPoint x="326" y="-452" as="sourcePoint" />
            <mxPoint x="254" y="-509" as="targetPoint" />
          </mxGeometry>
        </mxCell>
        <mxCell id="1_JUy7Ut2HyBvIPojTy2-31" value="" style="endArrow=none;html=1;rounded=0;fontSize=12;startSize=8;endSize=8;curved=1;exitX=0.25;exitY=0;exitDx=0;exitDy=0;entryX=0.471;entryY=1.129;entryDx=0;entryDy=0;entryPerimeter=0;" edge="1" parent="1" source="1_JUy7Ut2HyBvIPojTy2-4" target="1_JUy7Ut2HyBvIPojTy2-24">
          <mxGeometry width="50" height="50" relative="1" as="geometry">
            <mxPoint x="524" y="-271" as="sourcePoint" />
            <mxPoint x="452" y="-328" as="targetPoint" />
          </mxGeometry>
        </mxCell>
        <mxCell id="1_JUy7Ut2HyBvIPojTy2-32" value="I" style="text;html=1;align=center;verticalAlign=middle;resizable=0;points=[];autosize=1;strokeColor=none;fillColor=none;fontSize=16;" vertex="1" parent="1">
          <mxGeometry x="27" y="-203" width="22" height="31" as="geometry" />
        </mxCell>
        <mxCell id="1_JUy7Ut2HyBvIPojTy2-33" value="N" style="text;html=1;align=center;verticalAlign=middle;resizable=0;points=[];autosize=1;strokeColor=none;fillColor=none;fontSize=16;" vertex="1" parent="1">
          <mxGeometry x="411" y="-203" width="30" height="31" as="geometry" />
        </mxCell>
      </root>
    </mxGraphModel>
  </diagram>
</mxfile>
